<?xml version="1.0" encoding="utf-8"?>
<!-- Generator: Adobe Illustrator 27.0.0, SVG Export Plug-In . SVG Version: 6.00 Build 0)  -->
<svg version="1.1" id="Layer_1" xmlns="http://www.w3.org/2000/svg" xmlns:xlink="http://www.w3.org/1999/xlink" x="0px" y="0px"
	 viewBox="0 0 140 47" style="enable-background:new 0 0 140 47;" xml:space="preserve">
<style type="text/css">
	.st0{fill:#FFFFFF;}
	.st1{fill:#9247FF;}
</style>
<path class="st0" d="M91.1,17c-0.1,0-0.2,0-0.4,0c-1.5,0-4.1,0.9-4.9,3.3l-0.1,0.2c0,0-0.1,0.1-0.1,0.1c-0.1,0-0.1-0.1-0.1-0.1
	l-0.2-2.6c0-0.2-0.2-0.4-0.4-0.4h-3.6c-0.2,0-0.5,0.2-0.4,0.5c0.1,1.1,0.1,2.5,0.1,4.7v9.8c0,0.2,0.2,0.4,0.4,0.4h4.6
	c0.2,0,0.4-0.2,0.4-0.4v-7.2c0-0.3,0-0.5,0-0.8v0c0.3-1.5,1.8-2.4,3.9-2.4c0.3,0,0.5,0,0.7,0c0.3,0,0.5-0.2,0.5-0.5v-4
	C91.6,17.2,91.4,17,91.1,17L91.1,17z"/>
<path class="st0" d="M103.6,28.9c-0.8,0-1.8,0.1-2.2,0.1c-2.2,0-2.4-1.6-2.4-3.3v-4c0-0.3,0.2-0.5,0.5-0.5h4.1
	c0.3,0,0.5-0.2,0.5-0.5v-2.9c0-0.3-0.2-0.5-0.5-0.5h-4.1c-0.3,0-0.5-0.2-0.5-0.5v-3.5c0-0.3-0.3-0.5-0.6-0.5l-4.3,1
	c-0.2,0-0.4,0.2-0.4,0.5v12.5c0,2.3,0.5,3.9,1.4,4.8c0.7,0.7,2.1,1.5,4,1.5c2.5,0,3.8-0.2,4.6-0.3c0.2,0,0.4-0.2,0.4-0.5v-3.1
	C104.1,29.1,103.8,28.8,103.6,28.9L103.6,28.9z"/>
<path class="st0" d="M122.4,17.8c0-0.3-0.2-0.5-0.5-0.5h-4.5c-0.3,0-0.5,0.2-0.5,0.5v8.5c0,0.3,0,0.6-0.1,0.9
	c-0.2,0.5-0.8,1.9-2.6,1.9c-1.2,0-2.7-0.6-2.7-3.6v-7.6c0-0.3-0.2-0.5-0.5-0.5h-4.5c-0.3,0-0.5,0.2-0.5,0.5v8.7c0,4.3,2,6.7,5.8,6.7
	c2.2,0,4.3-0.9,5.4-2.5l0.1-0.1c0,0,0.1-0.1,0.1-0.1c0.1,0,0.2,0.1,0.2,0.2l0.2,1.7c0,0.2,0.2,0.4,0.5,0.4h3.7
	c0.3,0,0.5-0.2,0.5-0.5c-0.1-1.5-0.1-3.1-0.1-4.8L122.4,17.8L122.4,17.8z"/>
<rect x="8.5" y="8.5" class="st0" width="27.8" height="29.5"/>
<path class="st0" d="M139.9,29.2v-5.4c0-4.5-2.5-6.8-7.5-6.8c-3,0-5.1,0.7-6.2,1.2c-0.2,0.1-0.3,0.3-0.3,0.5l0.6,2.2
	c0.1,0.3,0.4,0.4,0.6,0.3c1.2-0.5,2.7-0.9,4.2-0.9c2.1,0,3.2,0.6,3.2,1.7v0.3c0,0.1-0.1,0.2-0.2,0.2h-0.2c-3.1,0-5.5,0.5-7.1,1.5
	c-1.7,1-2.5,2.5-2.5,4.5c0,2.3,1.8,4.7,5.3,4.7c2,0,3.9-0.6,4.9-1.6l0.1-0.1c0,0,0.1,0,0.1,0c0.1,0,0.1,0,0.1,0.1l0.2,0.9
	c0,0.2,0.2,0.4,0.5,0.4h3.9c0.3,0,0.5-0.2,0.5-0.5C139.9,31.5,139.9,30.4,139.9,29.2L139.9,29.2z M134.6,27.7c-0.3,1.1-1.4,2-2.6,2
	c-1.4,0-2.2-0.7-2.2-1.8c0-1.6,1.5-2.4,4.4-2.4h0.2c0.1,0,0.2,0.1,0.2,0.2v1.1C134.7,27.1,134.7,27.4,134.6,27.7L134.6,27.7z"/>
<path class="st0" d="M72.7,17.4h4.5c0.3,0,0.5,0.2,0.5,0.5v14.5c0,0.3-0.2,0.5-0.5,0.5h-4.5c-0.3,0-0.5-0.2-0.5-0.5V17.8
	C72.2,17.6,72.4,17.4,72.7,17.4z"/>
<path class="st0" d="M70.1,17.4h-5c-0.2,0-0.4,0.2-0.5,0.4l-2.9,9.6h-0.1l-3.1-9.6c-0.1-0.2-0.3-0.4-0.5-0.4h-5.2
	c-0.3,0-0.5,0.3-0.4,0.5l6,14.6c0.1,0.2,0.3,0.3,0.5,0.3h5c0.2,0,0.4-0.1,0.5-0.3l6.1-14.6C70.5,17.6,70.4,17.4,70.1,17.4L70.1,17.4
	z"/>
<path class="st0" d="M74.9,10c-2,0-3.1,1.2-3.1,2.8s1.1,2.8,3.1,2.8c1.9,0,3.1-1.2,3.1-2.8C78,11.3,76.9,10,74.9,10L74.9,10z"/>
<path class="st1" d="M23.1,0C10.3,0,0,10.4,0,23.1c0,12.8,10.3,23.1,23.1,23.1s23.1-10.4,23.1-23.1S35.9,0,23.1,0z M25.5,35.1
	c-0.3,0.5-0.6,1.1-1.3,1.1c-0.6,0-1.1-0.6-1.4-1.1L11,13.5c-0.3-0.6-0.6-1.2-0.7-1.9c-0.1-1.1,0.5-1.8,1.6-1.8c2.7,0,5.4,0,8.1,0
	c1.1,0,1.9,0.5,2.5,1.6c1.3,2.6,2.2,4.8,3.9,7.2c4,4.5,7.9,0,9.5-1.8L25.5,35.1L25.5,35.1z"/>
</svg>
